<?xml version="1.0" standalone="no"?><!DOCTYPE svg PUBLIC "-//W3C//DTD SVG 1.1//EN" "http://www.w3.org/Graphics/SVG/1.1/DTD/svg11.dtd"><svg t="1728544143479" class="icon" viewBox="0 0 1024 1024" version="1.1" xmlns="http://www.w3.org/2000/svg" p-id="13387" xmlns:xlink="http://www.w3.org/1999/xlink" width="200" height="200"><path d="M82.86056297 927.54678518c-1.4239921-10.35630617-4.14252247-20.71261235-4.14252247-30.93946468-0.25890765-254.76513185-0.25890765-509.40080987-0.12945383-764.16594174 0-7.76722963 1.68289975-15.66391309 2.45962272-23.43114271C222.54124247 241.44150124 358.9855763 379.0509195 494.52373333 517.56651457c-137.2210568 136.57378765-274.44211358 273.27702914-411.66317036 409.98027061z" fill="#4285F2" p-id="13388"></path><path d="M494.52373333 517.56651457C358.9855763 379.0509195 222.54124247 241.44150124 81.04820939 108.88078222c23.69005037-77.41338864 95.53692445-110.94192987 164.66526814-72.10578172C402.09370075 124.9330568 556.79102419 215.93909728 712.26507061 305.90950717 641.45382717 376.5912968 570.6425837 447.27308642 499.70188642 517.95487605c-1.68289975 0-3.3657995-0.12945383-5.17815309-0.38836148z" fill="#36A854" p-id="13389"></path><path d="M494.52373333 517.56651457c1.68289975 0.25890765 3.49525333 0.38836148 5.17815309 0.38836148 69.25779753 70.55233581 138.51559506 141.23412543 207.7733926 211.78646123-154.69732347 89.19368691-308.87683161 179.29355061-464.35087804 267.19269925-64.46800592 36.50597925-149.51917037-2.45962272-160.39329184-69.51670517 137.35051061-136.57378765 274.57156741-273.27702914 411.79262419-409.85081679z" fill="#E84537" p-id="13390"></path><path d="M707.47527902 729.74133728c-69.25779753-70.55233581-138.51559506-141.23412543-207.7733926-211.78646123C570.6425837 447.27308642 641.45382717 376.5912968 712.26507061 306.03896098c67.57489778 38.31833283 136.05597235 74.95376592 202.33633186 115.47281384 74.56540445 45.56774717 75.98939653 144.08210963 2.20071506 189.64985679C848.57995061 653.10467161 777.38034569 690.38737383 707.47527902 729.74133728z" fill="#FABB06" p-id="13391"></path></svg>