<?xml version="1.0" standalone="no"?><!DOCTYPE svg PUBLIC "-//W3C//DTD SVG 1.1//EN" "http://www.w3.org/Graphics/SVG/1.1/DTD/svg11.dtd"><svg t="1728543198360" class="icon" viewBox="0 0 1024 1024" version="1.1" xmlns="http://www.w3.org/2000/svg" p-id="9214" xmlns:xlink="http://www.w3.org/1999/xlink" width="200" height="200"><path d="M512 1024C229.3 1024 0 794.65 0 512 0 229.3 229.35 0 512 0c282.7 0 512 229.35 512 512 0 282.7-229.35 512-512 512z m186.7-472.909L574.209 336c-24.909 21.3-49.766 81.766-14.208 142.234l156.442 270.208c10.65 19.558 37.35 26.65 56.857 16 19.584-10.65 26.701-37.35 16-56.884l-40.857-71.116h60.441c23.117 0 42.675-17.792 42.675-40.884 0-23.116-17.792-42.65-40.908-42.65h-112v-1.791h0.05zM350.209 677.3c-21.35-26.624-49.792-33.74-83.558-24.832L236.442 704c-10.676 19.558-3.584 46.208 16 56.909 19.532 10.65 44.416 3.533 56.857-14.26 0 1.793 40.909-69.35 40.909-69.35zM512 227.584l-19.558-32c-12.442-19.558-37.35-26.675-56.935-14.208-19.533 12.442-26.624 37.35-16 56.858l42.675 74.7-136.857 238.183H218.7c-23.143 0-42.701 17.792-42.701 40.909 0 23.09 17.766 42.7 40.909 42.7h384c17.74-33.792-5.376-83.584-48-83.584H421.325l181.299-312.96c12.493-19.507 5.35-46.208-14.208-56.857-19.558-12.493-46.208-5.35-56.883 14.208L512 227.558z" fill="#1AFA29" p-id="9215"></path></svg>