<?xml version="1.0" standalone="no"?><!DOCTYPE svg PUBLIC "-//W3C//DTD SVG 1.1//EN" "http://www.w3.org/Graphics/SVG/1.1/DTD/svg11.dtd"><svg t="1728543589576" class="icon" viewBox="0 0 1024 1024" version="1.1" xmlns="http://www.w3.org/2000/svg" p-id="1480" xmlns:xlink="http://www.w3.org/1999/xlink" width="200" height="200"><path d="M92.362549 92.362549m270.065935 0l299.13178 0q270.065934 0 270.065934 270.065935l0 299.13178q0 270.065934-270.065934 270.065934l-299.13178 0q-270.065934 0-270.065935-270.065934l0-299.13178q0-270.065934 270.065935-270.065935Z" fill="#21E845" p-id="1481"></path><path d="M422.844484 241.934066h132.096v214.286066h-81.942506V317.079912h-70.858549zM512 476.351297c84.41811 0 152.857319 68.439209 152.857319 152.857318S596.41811 782.065934 512 782.065934s-152.857319-68.439209-152.857319-152.857319S427.58189 476.351297 512 476.351297z m0 73.885538a78.97178 78.97178 0 1 0 0 157.943561 78.97178 78.97178 0 0 0 0-157.943561z" fill="#FFFFFF" p-id="1482"></path></svg>