<?xml version="1.0" standalone="no"?><!DOCTYPE svg PUBLIC "-//W3C//DTD SVG 1.1//EN" "http://www.w3.org/Graphics/SVG/1.1/DTD/svg11.dtd"><svg t="1728542655726" class="icon" viewBox="0 0 1024 1024" version="1.1" xmlns="http://www.w3.org/2000/svg" p-id="3654" xmlns:xlink="http://www.w3.org/1999/xlink" width="200" height="200"><path d="M0.096 939.424v-227.2c6.752-8.032 15.456-10.944 25.824-11.04 34.784-0.256 69.6 0 104.384 0 15.36 0 23.328 6.592 23.136 23.008-0.192 20.032 0.928 40.096-1.088 60.128-0.928 9.152-0.736 18.208 4.928 26.08a103.104 103.104 0 0 0 4.352 14.336c2.784 6.88 4.864-0.576 7.456-1.184 8.736-4.896 16.448-0.64 24.32 2.464s15.264 8 24.288 4.736c12.8 14.336 25.024 3.648 37.504-0.32 5.184 0 10.496-0.832 15.2 2.304 16 19.68 37.12 12.192 55.712 8.256 13.984-2.912 4.224-9.376-2.144-13.088-10.944-13.6-10.752-26.24 3.2-37.792 7.232-6.016 7.328-18.08 17.792-21.472a216.16 216.16 0 0 0 39.872 3.2c21.152-1.088 28.8-8.512 31.104-29.728 1.248-11.616-0.64-23.936 8.32-33.632a38.4 38.4 0 0 1 22.944-7.072c5.92 0 12.512 1.216 17.664-1.024 31.488-13.728 61.76-6.4 92.032 4.032 9.376 4.448 16 12.288 23.104 19.424a83.488 83.488 0 0 0 42.784 24.096 51.52 51.52 0 0 0 14.272 5.152 123.968 123.968 0 0 0 22.016 1.632c9.312 0.288 18.56 0 27.84 0 59.744-1.792 118.624 13.504 178.432 8.672a182.816 182.816 0 0 0 23.68-2.048c14.336-5.152 21.344-16 25.856-30.176 3.2-9.6-0.352-22.624 12-28.544 24.416-2.592 48.8-1.024 73.184-1.088 9.6 0 18.08 2.784 24.096 10.88v249.312c-6.4 8.608-15.264 10.56-25.216 10.112-13.984 0.704-28.032 0.896-42.08 1.12-19.52 0.288-37.92 0.864-48-21.888-4.64-10.56-17.696-12.8-29.088-13.12-39.872-1.28-79.808-1.088-119.712 0-15.776 0.384-28.8 6.176-36.416 20.992-4 7.904-9.6 13.248-18.688 13.376-20.576 0.224-41.376 3.488-61.504-3.616a16.32 16.32 0 0 1-6.88-2.944c-5.056-18.208-18.24-26.272-35.968-27.584a424.448 424.448 0 0 0-62.176 0c-9.152 0.64-19.2 2.848-23.296 11.008-11.936 24.128-32 25.6-54.4 22.4-11.616 1.728-23.168 0.224-34.72-0.48-2.24 0-4.992 0.704-6.592-0.352-52.928-35.04-112-20.736-167.936-16.352-29.728 2.336-58.88 17.376-90.56 13.92-5.856-0.608-12.448 0.96-17.472-1.888-36.288-20.416-76-15.328-114.912-16-11.232-0.032-21.408-1.216-28.448-11.008z" fill="#1B2353" p-id="3655"></path><path d="M1024.096 89.056v151.36c-7.84 10.048-16.832 6.4-23.264-0.256-13.632-13.76-29.632-16.48-48-15.648a332.512 332.512 0 0 1-61.28-1.504c-12.8-0.288-25.856-0.384-38.784 0-35.456 2.432-70.944 1.12-106.4 0.768a198.08 198.08 0 0 1-34.304 0c-16.416-1.632-34.336 3.776-48.192-10.368a7.264 7.264 0 0 0-8.352-0.768c-40.672 20.96-81.056 13.44-121.344-1.152-15.136-13.024-34.016-22.048-43.04-41.344-4.352-9.312-9.6-8.256-17.376-3.2-20.416 13.568-38.176 28.8-45.696 53.472-2.304 7.52-6.4 16-17.728 11.36-22.336-9.376-45.44-10.016-68.8-4.576-74.528-4.416-149.024-2.368-223.52-0.928-5.824 0-11.68 2.208-17.472-0.352-24.192-2.88-48.416 0-72.608-0.992-10.784-0.448-20.736-1.888-27.84-11.104V71.232c9.248-12.064 22.4-11.104 35.584-11.104 10.88 0 21.792 0 32.64 0.704 18.4-0.544 36.864-0.832 55.36-0.704 12.128 0 23.52 0.928 30.976 12.8 3.776 6.048 10.368 7.936 17.504 7.328 62.688-5.28 125.504-1.728 188.256-2.08 25.952 0 49.984-3.456 70.752-20.128a59.776 59.776 0 0 1 19.744-2.304c154.464 0.48 308.96-0.416 463.328 0.288a24.736 24.736 0 0 1 20.064 11.616c4.96 7.456 11.936 7.488 19.584 6.144 13.216-0.576 26.368 0.256 39.488-0.352s23.808 3.808 30.72 15.616z" fill="#1E285B" p-id="3656"></path><path d="M0.096 534.4v-142.624c13.152-14.848 28.288-14.752 43.04-3.744 10.976 8.16 14.112 3.2 16.192-6.848 0.448-2.176 0.448-4.416 0.704-6.624 3.2-28.8 28.96-40.96 52.992-23.424 10.24 7.456 15.552 8 24-0.576 6.112-6.208 15.072-5.408 23.2-5.44 57.12 0 114.656-4.256 171.2 1.568 32.864 3.392 65.952 8.544 99.2 11.712 8.32 1.824 12.448 9.248 18.592 13.952a99.744 99.744 0 0 1 11.584 15.744 179.552 179.552 0 0 1 13.536 28.32c8.896 26.176 26.72 48 36.896 73.408 1.536 2.624 3.2 5.184 4.864 7.744 3.616 6.144 7.968 11.904 11.008 18.4-2.56 14.816 6.4 20.352 18.688 23.584 10.72 2.816 21.664 4.224 32.608 6.048 20.224 16.48 44.416 14.624 68.192 14.848 22.912-2.24 45.728-3.52 68.48 0.832a76.8 76.8 0 0 0 30.784 40.32c8.128 5.472 12.256 12.544 4.992 21.824-23.616 4.576-47.104 2.464-70.592-0.8a559.712 559.712 0 0 0-93.12-5.888c-13.92 0.416-27.872 0.736-41.44-3.2-3.84 0.48-7.648 1.024-11.424 1.696-13.76 0.608-23.52-10.208-36.16-12.8-7.072-14.656-22.208-22.912-29.696-37.28-4.64-8.928-12.32 0.448-17.952-2.848-5.6-1.888-7.072-8.896-16-8.224-21.28 1.6-42.784 0.192-64.192 0.832-28.192 0.864-48.864 19.424-72.704 30.528-13.312 3.392-21.312-0.288-24.48-15.072-2.944-13.76-8.608-26.944-26.848-25.856-70.976 2.624-141.888 4.832-212.832 0.256-12.256 0.352-24.704 1.12-33.312-10.368z" fill="#1E2557" p-id="3657"></path><path d="M432.096 71.232c-5.632 15.072-17.472 18.016-32 17.92-62.272-0.352-124.544 0-186.816 0-14.048 0-26.944 0.192-38.72 11.808s-27.776 6.24-31.168-10.816c-3.2-15.296-11.808-18.912-25.12-18.784-15.584 0.192-31.136 0-46.72 0-16-18.688-16-52.544 0-71.232H1024.096v84.448c-24.96 6.176-50.72-1.664-75.68 4.48a69.056 69.056 0 0 1-7.072 11.2c-5.888 6.176-10.912 3.488-13.376-3.2-2.976-8.288-1.792-17.696-6.4-25.6-4.608-3.456-9.984-2.176-15.04-2.176H446.88c-4.96-0.224-10.304-1.504-14.784 1.952z" fill="#1F295D" p-id="3658"></path><path d="M1024.096 391.776v155.84c-6.592 9.6-16 10.496-26.144 8.192-35.968-14.496-73.984-9.152-111.264-11.232-75.488 1.696-150.944 0.576-226.4 0.64-8.288 0-16.32-0.864-22.784-7.04-13.12-22.688-6.624-47.36-5.856-71.232 0.224-7.488 1.792-13.664-4.448-19.008-7.232-14.432 7.296-30.464-3.392-44.64-0.64-2.144-1.088-4.32-1.76-6.4-8.832-27.488-5.216-32.192 23.232-29.856 33.472 16 35.04 15.68 58.592-12.8 5.856-7.072 13.376-8.768 21.632-8.8q129.888-0.48 259.808 0c12.8 0 21.12 5.056 23.872 18.464 2.112 10.496 5.792 20.768 14.912 27.872z" fill="#1E2557" p-id="3659"></path><path d="M1024.096 391.776c-15.136 0.928-26.208-2.944-27.456-20.864-0.704-9.6-7.776-13.696-16.896-14.272-4.416-0.288-8.864-0.416-13.312-0.416h-224.32c-22.208 0-22.208 0.352-30.624 22.4a15.392 15.392 0 0 1-2.72 5.984c-14.784 12.8-32.48 5.632-48.928 6.624-11.424 0.672-17.952-5.6-18.624-17.312-7.872-8.832-15.424-13.248-24.416-0.672-1.344 1.888-7.456 3.392-11.84 2.56-11.648-2.016-13.408-12.8-18.016-20.704-16.192-28-26.784-58.976-45.984-85.44-4-5.504-9.152-9.408-12.8-14.656C521.984 243.2 523.072 230.4 523.936 217.6c8.672-11.488 16.96-2.08 25.952 0 23.648 5.088 47.04 14.048 72 6.08a24 24 0 0 1 16.192-0.576c19.392 8.128 38.592-2.592 57.6-0.192 8.768 1.088 11.52-5.344 16.608-9.152h35.616c34.176 34.784 72.672 34.784 106.848 0a57.888 57.888 0 0 1 35.616 0c14.944 18.656 34.496 26.144 58.112 24.512A267.232 267.232 0 0 1 1024.096 244.864zM432.096 365.088c-29.408-0.928-59.104 3.2-87.968-7.552-8.576-3.2-19.2-1.312-28.8-1.312H173.024c-22.976 0-23.2 0.192-31.456 21.696-3.008 7.84-7.648 12.48-16 12.8-9.6 0.224-15.296-4.512-17.504-13.728-0.672-2.88-1.184-5.792-2.016-8.64-2.88-9.6-10.24-11.904-19.2-11.232s-13.824 5.568-14.432 14.08c-0.864 11.808-0.736 23.68-1.344 35.52-0.48 9.6-3.2 17.856-14.432 19.36-11.648 1.568-18.656-4.16-20.224-15.488-3.2-23.616-21.504-17.536-36.16-18.72V249.312c7.776-11.168 19.456-11.456 31.296-11.136A100.8 100.8 0 0 0 102.496 213.696h244.864c18.432 10.24 17.952 28.8 19.68 45.984 1.44 14.592 0 29.344 0.992 44 1.248 18.848 10.592 29.76 29.792 32 13.024 1.472 26.176 2.656 38.4 8.512a15.136 15.136 0 0 1 2.304 7.584c-0.352 5.312 0.64 11.296-6.432 13.312z" fill="#1D2758" p-id="3660"></path><path d="M35.712 534.4h213.696c8.288 6.4 10.976 14.784 11.232 25.152 0.672 28.064-1.088 56.096-0.288 84.16 0.48 17.728-16.416 25.056-26.176 36.096-5.216 5.92-11.136 9.6-9.76 18.4s-4.864 14.272-9.44 19.2c-16.864 18.08-26.528 39.84-35.2 62.304-1.92 4.096-4.352 7.936-6.4 12.032-4.384 8.544-5.504 17.92-7.424 27.136-4.64 7.488-9.6 8.768-14.592 0.48-9.6-15.2-8.928-32.16-8.96-49.152 0-64 6.016-57.376-58.496-57.6-27.968-0.16-55.936 0-83.904 0v-107.104c16.16-13.12 26.24-29.12 24.672-50.912-0.512-8.896 4.864-14.912 11.04-20.192zM641.216 534.4h249.312c8.448 6.016 10.336 14.72 11.488 24.512 3.2 26.784 11.072 33.792 38.176 35.2 19.2 0.992 38.112 0.384 57.152 0.384 10.752 0 20.128 1.888 26.752 11.104v106.848h-97.952c-7.232 9.248-16.384 11.616-27.328 7.52-23.392-4.16-27.328-26.304-38.4-41.6-2.592-6.688-7.776-12.48-6.816-20.384 9.376-13.472-6.752-17.44-9.6-26.368-1.088-12.256-9.6-21.92-10.112-34.976-0.512-12.448-12.992-14.432-23.584-14.944-23.488-1.12-46.976-0.512-70.4-0.416-10.88 0-20.352-2.016-27.168-11.2h-71.52a31.104 31.104 0 0 0-11.872-7.616c-10.08-3.84-19.776-10.496-14.144-23.52s16.256-9.312 26.016-4.544z" fill="#1C2554" p-id="3661"></path><path d="M997.376 961.664H1024.096V1024H142.56c-7.008-6.592-12.8-13.44-7.872-24.064s13.6-13.184 24.416-13.376c68.576-1.024 137.184-0.352 205.76-0.288 24.576 0 45.792-6.112 62.656-24.608h35.616c23.456 22.816 86.56 33.888 115.2 20.352a34.432 34.432 0 0 0 14.208-13.44c14.24-22.208 28.224-24.128 48.544-6.912 15.616 19.2 36.16 24.832 60.224 24.672q117.856-0.8 235.712 0c24.192 0.16 44.736-5.568 60.352-24.672z" fill="#1A2350" p-id="3662"></path><path d="M427.52 961.664v8.896c-1.024 23.584-3.584 26.496-27.744 26.592-69.536 0.256-139.04 0-208.576 0h-19.968c-23.488 0.704-25.792 2.912-28.608 26.624H106.944q-17.824-21.952-35.616 0H0.096v-84.352h102.176a70.656 70.656 0 0 1 33.44 9.12 90.688 90.688 0 0 0 84.8 0 71.712 71.712 0 0 1 33.408-9.184c43.712 0 87.392 0.32 131.2 0 14.272 0 26.272 2.176 33.568 16.192 1.344 2.784 5.76 4.096 8.832 6.112z" fill="#1A2350" p-id="3663"></path><path d="M1024.096 605.504c-35.36 0-70.752 0.192-106.112 0-23.808-0.256-26.816-3.424-27.36-26.912-0.32-14.72 0-29.472 0-44.192h82.016c10.496 0 21.312 0 24.832 13.248 7.648 8.96 19.2 13.28 26.72 22.4z" fill="#1C2455" p-id="3664"></path><path d="M71.328 0v71.232H0.096V0z" fill="#1F2A5B" p-id="3665"></path><path d="M1024.096 244.864c-37.984 8.352-76.48 3.2-114.72 4-11.328 0.224-17.984-5.696-18.432-17.472-0.256-5.888-0.288-11.776-0.416-17.696 28.416-1.248 57.056 3.2 85.248-5.152 11.392-3.2 19.456 4.672 25.184 13.728s11.36 17.28 23.136 18.144z" fill="#1F2758" p-id="3666"></path><path d="M102.496 213.696c-7.072 25.056-16.672 33.12-45.44 35.008-18.912 1.216-37.952 0.48-56.96 0.608V213.696z" fill="#1F2859" p-id="3667"></path><path d="M35.712 534.4c0 14.656 0.192 29.312 0 43.936-0.48 23.712-3.2 26.24-26.72 27.232H0.192V534.4z" fill="#1C2455" p-id="3668"></path><path d="M71.328 1024a80.864 80.864 0 0 1 1.632-10.816c2.432-8.608 7.808-14.272 17.28-13.728 8.32 0.48 13.024 6.016 15.104 13.728a92.8 92.8 0 0 1 1.6 10.816z" fill="#1A2350" p-id="3669"></path><path d="M1024.096 569.888c-23.136-1.792-23.136-1.792-26.72-22.4H1024.096z" fill="#1C2554" p-id="3670"></path><path d="M948.416 89.056c24.8-8.704 50.464-2.624 75.68-4.48v4.48z" fill="#1F295C" p-id="3671"></path><path d="M997.376 961.664v8.896c-1.024 23.616-3.584 26.56-27.872 26.592q-146.848 0.352-293.6 0c-33.312 0-34.144-1.056-34.624-35.584q25.6 0 50.944-0.256c10.88 0 18.752-4.224 20.192-16 1.824-14.976 11.616-19.2 24.96-19.2h163.968c13.344 0 23.136 4.192 24.96 19.2 1.44 11.84 9.312 16 20.192 16q25.44 0.288 50.88 0.352zM641.216 961.664l-15.488 0.224c-10.944 0-18.848 4.32-19.84 16.224-1.28 15.424-10.944 19.2-24.384 19.2-30.976-0.192-61.952 0.288-92.8 0-21.248-0.32-24.16-3.552-25.344-24.384-0.224-3.68 0-7.392 0-11.072 17.76 0.64 34.336 0.32 37.632-23.488 1.28-9.376 10.624-11.648 19.2-11.712 33.152-0.192 66.336-0.768 99.456 0 18.528 0.448 20.896 5.504 21.568 35.008z" fill="#1A2252" p-id="3672"></path><path d="M556.544 712.352c-15.104-1.792-31.104 1.408-44.8-8.608a9.6 9.6 0 0 0-8.448 0c-24.064 14.272-50.464 6.4-75.808 8.576l-3.52-0.416c-12.992-10.624-16-25.216-16.48-40.928a64.96 64.96 0 0 1 30.08-44.8c8.416-1.216 16.832 1.44 25.28 0 23.744 5.504 48.384 5.952 72.064 12.224 3.2 20.576 12.8 38.4 22.624 56.256 3.104 5.6 10.592 12.544-0.992 17.696z" fill="#1B2554" p-id="3673"></path><path d="M556.544 712.352a78.016 78.016 0 0 0-13.312-25.6 65.056 65.056 0 0 1-13.792-45.632c-9.312-7.84-13.824-16.192-2.464-25.984 5.888-2.624 12.128-4.48 16.352-9.6a237.92 237.92 0 0 0 54.944 4.384 532.704 532.704 0 0 1 103.392 7.136c15.392 2.464 30.88 1.504 46.304 1.696 3.2-8 9.6-10.112 17.44-10.496 25.76-1.216 51.2-0.8 71.552 18.464 2.464 4.736 7.776 8.352 5.856 14.816a10.528 10.528 0 0 1-5.664 5.408 55.008 55.008 0 0 1-32-4.032c-15.072-7.296-30.208-2.272-45.152 1.696-5.92 1.344-9.6-3.2-14.528-5.024-29.824-14.848-62.464-8.48-93.536-9.6a241.6 241.6 0 0 1-35.936-2.976c-19.04-2.656-37.344-2.56-55.136 7.424-14.08 7.936-18.56 16-10.464 29.984 9.088 15.616 21.408 28.8 32.512 42.88 1.44 3.584 4.928 5.856 6.4 9.6 2.464 6.016 8.416 7.072 13.536 9.312a29.856 29.856 0 0 0 7.136 6.144c6.88 2.24 13.696 4.704 20.544 7.136 15.712 7.04 32.512 5.792 49.056 6.688 22.752 4.576 45.856 3.776 68.864 4.256 22.592 4.256 45.408 4.448 68.256 4.384a257.248 257.248 0 0 0 49.632-1.024c5.888-1.312 11.584-3.936 17.856-3.2a11.04 11.04 0 0 1 6.4 3.36 9.056 9.056 0 0 1 1.664 7.04c-4 8.416-13.344 5.408-19.552 9.152-50.784 0.928-101.44 0.16-151.808-7.616-12.992-1.984-26.432-0.832-39.68-1.088a25.6 25.6 0 0 1-22.048 0h-26.88c-6.4 4.352-10.272 1.312-13.184-4.544-26.848-6.528-45.76-24.096-62.56-44.544z" fill="#162760" p-id="3674"></path><path d="M427.52 712.352q0 25.344-0.224 50.656c0 13.536-6.752 20.768-20.288 20.224-20.16-0.768-41.376 5.248-59.68-8.544a30.368 30.368 0 0 1-4.832-3.968c1.056-13.664 7.264-25.12 15.296-35.808 0.544-0.864 1.12-1.728 1.696-2.56a65.984 65.984 0 0 1 6.4-7.136c15.328-8.192 15.2-27.776 27.904-37.856 4.96-3.936 6.624-14.752 16.8-8.448 5.088 11.456 4.128 25.984 17.088 33.44z" fill="#1B2554" p-id="3675"></path><path d="M338.464 814.784c11.968 3.2 19.616 9.024 17.472 23.136-1.408 9.184-5.408 15.712-14.944 16-19.2 0.512-38.144 0.384-57.216 0a17.632 17.632 0 0 1-16.544-12.48c3.424-4.864-2.624-13.568 6.4-16 19.712-16.032 41.824-16.032 64.832-10.656z" fill="#192553" p-id="3676"></path><path d="M886.016 761.28c0-1.44 0-2.848 0.224-4.256-0.672-15.552-10.72-32.864 8.512-44.64h31.392c0 8.832 0.16 17.696 0 26.56-0.576 21.888-1.696 23.104-22.784 27.776-4.288 0.928-8.512 2.336-12.8 3.552-6.144-0.704-6.816-4.096-4.544-8.992z" fill="#1B2553" p-id="3677"></path><path d="M276.128 832.512c0.352 3.456 5.632 6.4 2.976 9.408-3.2 3.872-7.872 0.64-11.872-0.448l-13.344-4.448c-11.904 8.896-23.808 2.784-35.68 0-4.288 7.232-6.816 18.048-17.344 4.288-6.4-8.224-17.344-10.24-27.136-13.184-16 1.184-7.456-12.384-11.104-18.624 0.992-8.608-2.336-17.568 2.176-25.856l8.672-4.832 3.424 0.352c4.544 16.192 11.296 30.72 28.8 36.32 4.832 1.536 10.784 4.896 14.88 2.56 19.552-11.104 36.544-0.192 54.4 4.992a7.296 7.296 0 0 1 1.152 9.472z" fill="#162657" p-id="3678"></path><path d="M164.768 810.272l8.96 17.824a39.904 39.904 0 0 1 1.056 4.288c0.864 6.816 7.232 14.848-1.376 19.968a22.4 22.4 0 0 1-23.264-0.896c-8.288-5.024-7.648-13.536-6.208-21.728A17.568 17.568 0 0 1 151.456 819.2a20.672 20.672 0 0 0 8.928-8.896c1.44-3.296 2.912-3.296 4.384-0.032z" fill="#1D2453" p-id="3679"></path><path d="M276.128 832.512l-5.024-4.768c-3.808-5.888-0.736-8.96 4.512-11.392a139.296 139.296 0 0 0 20.512-11.072c5.92-2.752 6.752-9.952 11.616-13.664 3.712-3.936 3.52-10.528 8.768-13.44 10.144-1.6 14.944-14.208 26.464-13.024a17.824 17.824 0 0 1 4.384 5.152v4.384c-4.896 7.2-7.296 16-14.112 21.888-12 10.24-2.656 13.92 5.248 18.208-21.28 4.224-43.424 5.408-62.368 17.728z" fill="#19255B" p-id="3680"></path><path d="M218.208 836.992c11.904-4.992 23.776 1.184 35.68 0 2.528 3.392 6.848 6.784 4.672 11.264-2.56 5.312-7.52 2.624-11.264 0.992-9.632-4.224-22.208-1.568-29.088-12.256z" fill="#202254" p-id="3681"></path><path d="M886.016 761.28l4.512 8.96c-5.952 2.624-11.936 1.248-17.888 0zM619.04 756.832l13.184 4.544c-5.696 2.336-11.648 5.28-13.184-4.544zM659.104 761.408h22.048a21.376 21.376 0 0 1-22.048 0z" fill="#1B2554" p-id="3682"></path><path d="M431.744 347.296h-33.28c-42.176 0-42.624 0-42.048-43.424a349.92 349.92 0 0 0-9.056-90.144c15.168-0.48 30.4-0.224 45.472-1.696 12.32-1.184 19.776 2.176 21.344 15.072 4.32 19.2-4.576 37.536-2.592 56.448-16.576 18.816-14.656 26.048 9.344 35.2 9.408 7.2 17.088 15.264 10.816 28.544zM712.448 213.696c0 5.92 0.256 11.904-0.416 17.76-1.824 15.616-5.76 17.568-18.528 7.2-8.352-6.784-14.816-4.896-21.728 0.608-11.04 8.8-21.568 13.248-32.352-0.608-4.704-6.048-9.6-3.776-15.168 0.448-17.856 13.472-18.912 13.344-37.792-0.416-3.872-2.816-8-6.048-11.808-3.2-12.064 9.6-19.2 6.4-25.6-6.72-3.424-7.04-12.256-7.712-18.88-10.784-4.448-2.08-6.4-5.408-4.384-10.112A6.08 6.08 0 0 1 534.496 204.8c25.6 9.152 51.872 9.792 78.496 8.928 21.76-0.736 22.08-0.448 28.8-21.568 2.624-8.096 6.944-12.8 15.392-13.28 7.872-0.416 16.896 1.216 17.536 9.76 1.92 25.568 18.816 26.304 37.728 25.056z" fill="#1E2859" p-id="3683"></path><path d="M854.912 213.696c0 4.448 0.16 8.928-0.192 13.344-1.376 18.048-4.576 21.472-23.232 22.048-19.2 0.544-38.4 0.48-57.76 0-21.44-0.448-24.352-3.52-25.6-24.352-0.224-3.68 0-7.392 0-11.104 15.424 0 30.912 0.832 45.824-4.544a22.176 22.176 0 0 1 15.2 0c14.848 5.312 30.336 4.544 45.76 4.608z" fill="#1F2758" p-id="3684"></path><path d="M534.496 204.8l-4.192 13.344q6.592 15.552 13.12 31.04a12.608 12.608 0 0 1-6.016 5.728c-14.72 2.848-9.76-14.656-18.56-18.048a20.288 20.288 0 0 1-12.8-18.912c-2.24-24.416-24.16-29.728-40.32-39.616-7.424-4.544-13.44 3.968-12.224 11.424 4.128 25.6-17.408 40.416-25.6 60.512-5.088 12.32-9.248 21.888-5.856 34.432 0.768 1.888 1.504 3.808 2.304 5.664 1.632 3.776 4.128 7.104 5.6 10.976 5.024 11.616 14.24 21.472 14.88 34.944 2.144 10.752 14.688 16 14.528 28.096 0.896 9.6 11.584 18.72 2.144 29.184a9.024 9.024 0 0 1-6.752-1.472l-9.216-13.664c-10.336-5.984-7.904-18.208-13.088-26.688 0-1.504-0.16-2.976-0.256-4.448-6.688-6.816-8.736-17.216-17.6-22.4-6.176-12.608-24.192-22.4-9.088-39.968C406.496 265.6 401.248 244.864 414.176 227.2a58.656 58.656 0 0 0 11.52-26.016c5.984-25.28 25.6-35.584 46.752-44.448 7.104-2.944 14.496-3.744 20.352 2.752 11.616 12.8 22.4 26.56 37.92 35.2 2.432 1.28 2.496 6.624 3.776 10.112z" fill="#1D2963" p-id="3685"></path><path d="M432.096 71.232c9.6-4.896 20.096-4.416 30.464-4.416h428.8c10.368 0 20.8-0.48 30.464 4.416z" fill="#1F295C" p-id="3686"></path><path d="M443.456 148.48a17.888 17.888 0 0 1-5.696 1.408c-2.4-0.224-3.744-2.304-1.76-4.128a8.416 8.416 0 0 1 5.664-0.864c0.608 0.032 1.056 2.016 1.792 3.584z" fill="#1D2A54" p-id="3687"></path><path d="M832.608 632.224c-26.784-13.504-55.552-14.336-84.64-13.504-3.2-2.816-6.4-7.424-10.016-8.192-23.136-4.704-28.128-20.128-25.6-40.64 38.176 0 76.384 0.544 114.592-0.16 25.6-0.48 32.512 10.912 23.808 30.464-5.184 11.712 3.52 21.248 4.064 32-7.328 8.576-14.784 0.96-22.208 0.032z" fill="#1E2556" p-id="3688"></path><path d="M641.216 534.4c-11.04 5.152-19.872 10.56-4.832 21.824 4.128 3.2 4.256 8.8 4.832 13.76l-50.656-0.384c-11.904 0-19.904-4.544-20.576-17.632-4.928-8.864-27.456-12.032-9.312-28.448 6.944-4.192 12.192-10.976 20.16-13.76 21.344-3.456 15.072-22.688 20.288-35.424 5.792-12.064 16.416-20.8 21.92-33.056s11.872-7.392 18.176-0.608z" fill="#1D2655" p-id="3689"></path><path d="M173.472 778.784c0.832-12.8 3.744-24.864 13.664-34.176a15.008 15.008 0 0 0 5.312-11.808c0-2.912-0.64-7.744 0.736-8.48 25.824-13.632 20.992-49.664 46.656-63.392 9.6-5.152 12.064-14.112 11.104-24.64-3.2-33.984-0.864-68.064-1.536-102.08 5.088 0 10.176 0.192 15.264 0.192 13.376 0 19.904 6.624 20.288 20 0.256 10.24 0.256 20.928 13.312 24.288a9.6 9.6 0 0 1 5.472 3.2c-2.592 22.4-22.4 36.096-28.48 56.672-2.88 13.728-13.664 24.064-16 37.984a45.344 45.344 0 0 1-1.984 9.6 51.456 51.456 0 0 1-7.776 5.44c-4.672 4.128-7.936 9.6-12.8 13.632-6.752 8.8-18.784 14.624-15.52 28.8-3.552 10.496-21.856 11.04-17.696 26.912-8.64 7.328-10.432 26.144-28.8 19.2z" fill="#1B2456" p-id="3690"></path><path d="M538.656 618.56c-6.912 5.984-8.48 14.144-9.216 22.656-7.232 3.456-10.048 10.304-13.6 16.832-3.968 7.36-11.424 10.336-14.688 1.44-7.168-19.552-22.4-18.464-38.048-18.368-6.016-5.248-17.056-6.4-14.592-18.464 7.104-12.032 19.2-16.16 32-17.088a18.08 18.08 0 0 0 14.912-8.448l3.488-0.544c12.48 0.544 25.6-2.048 35.616 8.928 3.328 3.68 6.976 7.296 4.128 13.056z" fill="#1D2653" p-id="3691"></path><path d="M298.336 583.104v-4.352c23.616-23.84 51.904-34.112 85.6-31.488a294.208 294.208 0 0 0 48.32-1.568 21.152 21.152 0 0 1 22.016 10.848c25.6 7.488 12.416 25.888 11.52 40.832-1.408 16.544-11.296 27.008-24.864 34.816l-26.72 40.096c-3.2 2.048-0.512 7.168-4.48 8.928-15.84 14.208-22.4 35.776-39.2 49.312l-3.488-0.256c-4.992-2.976-3.616-7.936-3.872-12.384a26.24 26.24 0 0 1 4.256-12.8c2.112-4.8 5.856-8.864 7.04-14.016a26.688 26.688 0 0 0 9.792-16.608c2.016-6.4 7.776-8.928 12.8-12.224 2.4-1.824 4.8-3.648 7.04-5.664 4.992-13.856 21.728-21.76 19.776-39.104 2.016-5.824 8-8.064 11.424-12.8 11.84-16 9.216-25.6-10.08-34.688-19.2-4.448-38.816 1.984-58.272-4.896-8.512-3.04-20.416 1.216-25.888 12.16-12.8 3.552-25.312 7.904-38.4 10.624a26.784 26.784 0 0 1-4.32-4.768z" fill="#162A5A" p-id="3692"></path><path d="M458.816 601.024c-0.288-14.976 1.248-30.112-4.608-44.48 24.704-6.176 42.336 9.6 44.544 40.032-8.928 11.52-21.824 8.736-33.792 9.376a26.816 26.816 0 0 1-6.144-4.928z" fill="#1B2456" p-id="3693"></path><path d="M569.92 529.728c-6.016 7.456 1.504 14.88 0 22.4-9.6 0-18.88 0.256-28.288-0.192-21.248-1.024-25.6-6.4-22.624-26.944 0.384-2.848 1.216-5.664 1.824-8.48l1.536-3.584a68.32 68.32 0 0 1 14.048-6.944c9.6 3.488 22.176-0.768 28.992 10.56 4.288 3.36 7.712 7.2 4.512 13.184z" fill="#1B2557" p-id="3694"></path><path d="M503.072 494.464c-8.224-19.68-17.536-38.816-30.912-55.52a21.536 21.536 0 0 1-4.576-20.352 8.64 8.64 0 0 1 5.056-4.48c5.92 0.736 10.08 5.248 15.488 7.136 7.936 7.68 12.096 17.856 17.92 26.88a46.784 46.784 0 0 1 4 12.224c1.056 14.08 15.68 22.912 14.72 37.76 0.576 6.048 5.984 12.8-2.752 17.472l-1.12 0.864-13.28-13.376c-5.12-0.992-6.528-3.872-4.544-8.608z" fill="#172954" p-id="3695"></path><path d="M471.296 418.432l-3.712 0.16c-7.264-7.424-9.6-17.28-13.28-26.496l4.768-0.448c8.608-4.832 11.168 2.304 14.752 7.488 0.608 6.624 10.272 14.4-2.528 19.296zM432.096 351.744c6.72 7.744 9.344 17.472 13.088 26.688a28.032 28.032 0 0 1-13.152-13.344z" fill="#1E285B" p-id="3696"></path><path d="M503.072 494.464l4.544 8.608c-8.768 0.96-6.528-3.872-4.544-8.608z" fill="#232453" p-id="3697"></path><path d="M538.656 618.56c-1.44-4.352-2.88-8.704-4.288-13.056h8.96c-1.568 4.352-3.136 8.704-4.672 13.056z" fill="#1B2554" p-id="3698"></path><path d="M641.216 440.768c-14.624 10.912-23.104 27.264-35.584 40.064-4.832 1.792-9.6 3.2-13.504-1.92-4.8-12.032 1.76-24.256-0.832-36.352 0.384-7.68 7.008-11.872 10.112-18.08a110.976 110.976 0 0 0 7.776-19.936c7.968-8.992 15.776-12.8 23.136 0.608 10.976 9.888 8.352 23.136 8.896 35.616z" fill="#1A2656" p-id="3699"></path><path d="M632.32 405.152l-18.4 5.312c-14.176 2.496-8.96-9.76-12-15.744-0.48-8.64-7.296-18.208 3.744-25.152 18.304-18.816 27.584-17.664 35.552 4.416-8.576 1.376-16.416 3.2-10.08 14.752a19.2 19.2 0 0 1 1.184 16.416z" fill="#1D265B" p-id="3700"></path><path d="M605.664 369.568l3.936 23.008a6.912 6.912 0 0 1-9.312-0.96c-3.808-8.448-10.4-15.168-14.528-23.456-4.192-9.6-8.96-18.688-13.952-27.776a205.088 205.088 0 0 0-24.8-43.456c-0.608-11.712-11.168-18.688-13.952-29.376-1.088-6.784-4.768-14.304 5.088-17.984l5.12-0.384C559.488 281.6 575.616 314.304 592.096 346.72c3.936 7.872 8.992 15.232 13.568 22.848z" fill="#172D6F" p-id="3701"></path><path d="M164.768 810.272h-4.384c0-9.152 0-18.304 4.416-26.688 0 8.928 0 17.792-0.032 26.688z" fill="#162151" p-id="3702"></path><path d="M894.752 712.384c-0.16 15.392 2.304 31.296-8.512 44.64l-5.216-0.448a8.768 8.768 0 0 1-5.088-8.928c10.848-14.24 12.064-25.44-6.624-35.424-13.984-7.424-18.848-31.072-11.808-43.392a13.824 13.824 0 0 1 10.592 3.424c6.112 15.232 16.48 27.616 26.656 40.128z" fill="#102869" p-id="3703"></path><path d="M832.608 632.224a27.232 27.232 0 0 1 22.4 0c4.064 8.512 15.2 15.84 4.352 26.784-16 4.384-19.648-6.048-21.76-18.24z" fill="#1E2550" p-id="3704"></path><path d="M837.504 640.736l21.76 18.24 8.832 13.28h-8.864a8.096 8.096 0 0 1-5.184 4.512c-7.52-1.12-10.848-8.896-17.696-11.072a12.416 12.416 0 0 1-6.4-8.096c-1.376-5.888-1.568-11.616 2.592-16.64z" fill="#16286A" p-id="3705"></path><path d="M886.112 649.024c-1.184 0-2.88 0.48-3.456 0s-0.192-2.304-0.192-3.52c1.216 0 2.912-0.384 3.52 0.256s0.128 2.208 0.128 3.264z" fill="#16294D" p-id="3706"></path><path d="M458.816 601.024h4.288c14.112 14.208-7.936 14.016-8.864 22.24 2.944 5.952 5.92 11.872 8.864 17.824a32.448 32.448 0 0 1-22.24-8.928c8.096-9.152 12.256-20.608 17.952-31.136zM409.696 681.216l4.48-8.928c2.624 13.952 8.16 26.944 13.376 40.064-15.904-4.704-17.856-17.344-17.856-31.136z" fill="#1A2559" p-id="3707"></path><path d="M748.192 757.376c-23.712-1.088-47.68 1.184-71.136-4.288 1.728-9.856 9.856-6.4 15.68-7.424a144.416 144.416 0 0 0 26.752-2.4 35.936 35.936 0 0 0 10.688-3.392c6.08 0 11.584 3.52 17.76 3.04s11.616 0.192 17.408 0.256 11.328-1.376 16.992-1.152c4.16 0 10.08-0.288 9.6-5.184-2.144-32.224 3.936-65.216-8.288-96.576a7.264 7.264 0 0 1 0.608-6.944c15.424-3.2 29.344-1.664 39.648 11.968 10.08 11.616 3.2 25.6 4.96 38.112-1.408 23.232 1.824 46.816-4.48 69.824-24.8 10.272-50.56 5.6-76.192 4.16z" fill="#0151CE" p-id="3708"></path><path d="M596.416 735.296a21.312 21.312 0 0 1-16.32-10.112c2.944-29.856-0.672-59.84 1.6-89.6 0.448-5.632-3.648-14.464 7.744-14.656 6.08 0.96 12.48-1.28 18.304 2.048a10.4 10.4 0 0 1 4.416 6.624 271.264 271.264 0 0 1 5.056 93.024c-1.6 15.328-11.264 12.736-20.8 12.672z" fill="#018DEE" p-id="3709"></path><path d="M695.488 751.584l-18.432 1.504c-17.76-1.152-35.84 1.76-53.12-4.736 1.408-8.992 10.016-6.56 15.2-9.6 12.544-5.632 25.952-4.32 39.104-4.48 10.016 0 12.8-3.2 11.904-14.4-2.24-29.472-6.4-59.136-1.12-88.832a10.944 10.944 0 0 1 5.824-5.088c5.44-0.448 10.912-1.504 16 1.568 8.416 5.28 9.856 13.984 9.28 22.4a604.576 604.576 0 0 0-0.544 73.024c0.96 18.912-5.568 27.936-24.096 28.64z" fill="#016EDE" p-id="3710"></path><path d="M783.68 752.352h-17.824c-9.184-5.728-8.96-15.296-8.96-24.224 0-24.704 1.088-49.28-1.536-74.08-0.896-8.352-3.84-8.256-8.736-9.6-7.008-1.44-15.136 0.736-20.32-6.4a8.704 8.704 0 0 1 1.856-8.224 21.856 21.856 0 0 1 21.344 1.856l10.912-0.672c9.6 0 20.448-5.568 27.744 5.76v0.32c4 33.376 2.688 67.04 4.608 100.544a16.864 16.864 0 0 1-9.088 14.72z" fill="#015AD4" p-id="3711"></path><path d="M596.416 735.296c9.184-6.4 12.8-15.072 13.856-26.208 2.624-27.424-0.16-54.4-4.608-81.376 20.896-7.488 22.4-3.424 25.152 17.728 4.128 31.2-2.432 63.584 10.24 93.696-12.992 14.08-26.688 5.472-40.256 1.12a6.592 6.592 0 0 1-4.384-4.96z" fill="#0189EB" p-id="3712"></path><path d="M587.776 623.488c5.632 3.552 7.392 7.456 4.832 14.624a104.384 104.384 0 0 0-0.768 66.912c4.352 13.824-3.2 16-11.744 20.16a13.728 13.728 0 0 1-6.144-7.52 47.616 47.616 0 0 1-3.808-10.112c-3.456-11.584-2.176-23.52-2.528-35.392a134.112 134.112 0 0 1 0-17.568c0-12.8-0.256-25.792 10.944-35.2a9.056 9.056 0 0 1 9.216 4.096z" fill="#0292F0" p-id="3713"></path><path d="M587.776 623.488h-8.896c-8.928 9.44-20.064 16.288-29.312 25.312-5.568 12.064 6.4 16.864 10.336 25.056 8.768 9.6 9.312 22.944 14.496 34.144 0 3.2-0.288 6.4-0.448 9.76-14.4-15.136-24.704-33.248-35.2-50.976-14.464-24.48 1.152-50.656 29.792-51.2a179.52 179.52 0 0 1 41.952 3.584 3.808 3.808 0 0 1 1.568 3.52c-0.224 1.312-0.512 1.984-0.864 1.984a5.184 5.184 0 0 1-5.824-0.608z" fill="#0F95E6" p-id="3714"></path><path d="M610.432 623.392v-4.448c42.88-1.088 85.376 4.992 128 6.048a12.32 12.32 0 0 1 10.88 6.56l-19.2 0.768c-9.952 11.872-16 3.712-22.4-4.256h-13.44c-8.416 7.488-18.496 9.248-29.344 8.416-9.12-1.536-18.432-1.12-27.392-3.2a136.864 136.864 0 0 0-27.104-9.888z" fill="#0C64D3" p-id="3715"></path><path d="M788.16 636.8c-8.832-3.808-18.336-4.576-27.744-5.76 26.016-10.112 48.992 1.088 72.256 10.24 1.888 4.288 3.776 8.576 5.696 12.8-12.192 9.824-12.224-6.752-18.944-8.736a30.848 30.848 0 0 0-31.264-8.544z" fill="#0D43B4" p-id="3716"></path><path d="M748.192 757.376c23.52-2.464 47.424 2.048 70.72-3.968a5.536 5.536 0 0 1 3.936 4.64l-1.312 3.2-3.2 1.248c-23.328-1.312-47.04 0.896-70.144-5.12z" fill="#0A39AB" p-id="3717"></path><path d="M600.8 740.256c12.128-0.928 23.648 4.96 35.872 3.2a3.424 3.424 0 0 1 4.704-1.088 3.392 3.392 0 0 1-0.416 4.8l-17.024 1.248c-8.576-0.32-16.96-1.056-23.136-8.16z" fill="#007FE7" p-id="3718"></path><path d="M869.024 762.24a94.176 94.176 0 0 1-50.56 0l1.6-1.856c10.176-10.016 25.184-4.544 36.384-11.36 4.544 0 6.624 3.84 9.6 6.112a9.056 9.056 0 0 1 2.976 7.104z" fill="#0A39AB" p-id="3719"></path><path d="M882.464 748.384l-1.44 8.192-12 5.664-1.248-1.696c-4.128-9.6 2.048-13.472 9.376-16.64a5.984 5.984 0 0 1 5.312 4.48z" fill="#0A39AB" p-id="3720"></path><path d="M347.36 770.304l-5.376-0.544a9.6 9.6 0 0 1-5.536-7.872c-1.12-5.792 1.6-11.136 1.888-16.768 0.736-6.72 5.472-9.6 11.072-11.936 6.4-1.056 11.456-7.808 18.784-3.776l2.272 1.12-0.832 8.512z" fill="#0C2863" p-id="3721"></path><path d="M369.632 739.2c2.72 0.704 5.824 0.704 7.2 3.808 0 0.288-0.64 1.44-0.992 1.44-3.456 0-4.704-2.848-6.208-5.216z" fill="#1E2359" p-id="3722"></path><path d="M174.688 780c7.104-9.376 11.616-20.64 20.8-28.512 8.192 2.624 8.064 9.6 9.024 16 1.76 10.208-13.568 11.296-11.744 22.048-1.088 20.32 3.2 24.8 21.984 22.4 6.4-0.832 12.48-3.776 19.2-2.24 14.56 2.304 28.8 0 42.816-3.424a46.592 46.592 0 0 0 6.976-1.12 31.328 31.328 0 0 1 17.504-0.192 6.656 6.656 0 0 1 2.816 6.144c-8.992 9.6-22.4 9.952-32.928 16.672-19.872 0.288-39.744 0.896-59.616 0.736-32.224-0.288-45.024-17.376-36.832-48.512z" fill="#073EBE" p-id="3723"></path><path d="M342.88 761.344l-0.896 8.416-16 18.432c-3.456 3.904-6.592 8.192-12.192 9.056-10.24 1.632-14.976-6.24-20.832-12.16a17.92 17.92 0 0 1 3.2-16.768c7.584-16.608 26.24-2.624 36.16-12.8 5.632-2.016 8.224 1.696 10.56 5.824z" fill="#0158D1" p-id="3724"></path><path d="M304.096 811.072l-5.632-1.216c-3.2-2.88-5.824-5.952-3.936-10.72a9.152 9.152 0 0 1 10.88-3.424c3.616 1.504 8.352 1.056 10.24 5.696a20.064 20.064 0 0 1-11.552 9.664z" fill="#0146C7" p-id="3725"></path><path d="M315.584 801.408l-8.288-0.192c-4.32-10.176 7.52-4.128 8.768-8.704l9.6-4.32a22.4 22.4 0 0 1-10.08 13.216z" fill="#024FCF" p-id="3726"></path><path d="M405.056 285.024c0 14.016 9.376 25.92 9.088 39.968a32.672 32.672 0 0 1-15.424-11.872c-11.136-14.24-10.4-17.824 6.336-28.096z" fill="#202757" p-id="3727"></path><path d="M418.944 302.624l-4.512-8.992a139.872 139.872 0 0 0 1.824-23.424c0-5.024-0.896-12.8 3.392-14.4 17.312-6.592 23.936-22.72 34.528-35.2 2.048-0.8 4.416-2.592 6.24-1.728 13.728 6.4 25.6 3.2 35.2-7.424a11.008 11.008 0 0 1 11.904-3.648 11.456 11.456 0 0 1 5.792 4.256c4.512 7.168 10.112 13.856 9.792 23.104 0.8 9.6 3.2 19.84-9.28 24.352-3.2 0.224 0.576 1.248-2.208 0.64-16-3.584-27.296 2.432-34.464 16.896a55.616 55.616 0 0 1-11.04 1.28c-12.8-1.28-27.808-8.832-31.648 12.448a21.44 21.44 0 0 1-3.2 9.952c-3.456 4.832-7.52 5.184-12.32 1.888z" fill="#014FCD" p-id="3728"></path><path d="M463.136 267.136h8.896c10.72-8.224 24.544-10.272 35.616-17.824 7.232-3.872 9.6-11.456 13.344-17.856 1.44-2.944 3.008-3.008 4.672 0l12.48 18.272 4.896 17.472c-11.136 12.288-22.4 24.512-40.224 26.4-12.8 1.344-22.688 12.416-36.352 11.072-10.688 0.608-18.112-5.28-24.832-12.544-6.816-20.576 13.824-17.152 21.504-24.992z" fill="#0157D1" p-id="3729"></path><path d="M413.504 289.984a66.56 66.56 0 0 1 4.032-51.712c8.32-16.576 15.52-33.728 24.864-49.696 17.408-29.76 47.424-29.344 64.192 0.416 4.352 7.68 9.6 15.072 10.656 24.256-1.504 2.624-3.2 2.752-5.12 0.416-6.4-6.4-15.712-9.6-21.536-16.928-26.464-4.864-46.848 12-51.2 42.496-19.04 11.648-20.096 32.32-25.888 50.752z" fill="#033DBD" p-id="3730"></path><path d="M413.504 289.984c0.672-21.248 1.472-42.4 18.368-58.528 7.616-6.144 14.752-15.264 25.216-4.096 0.544 1.472 1.056 2.848 1.6 4.192-7.136 11.744-11.744 25.6-27.712 29.472-5.312 1.28-6.88 7.328-7.904 12.512a44.512 44.512 0 0 1-8.64 20.096 9.056 9.056 0 0 1-0.928-3.648z" fill="#0249CA" p-id="3731"></path><path d="M445.344 289.376a45.728 45.728 0 0 1 22.4 4.448c0 2.944 0.768 6.816-1.92 8.224-15.168 8.064-28.96 16.48-20.384 37.408 0.256 0.64-1.952 1.792-3.488 2.144a11.264 11.264 0 0 1-5.568-3.2 83.808 83.808 0 0 1-17.28-35.776l4.16-8.768c6.112-3.2 11.52-8.544 19.2-5.312z" fill="#0259D3" p-id="3732"></path><path d="M436.224 338.4h4.608c1.088-24.8 3.616-26.56 23.552-16.384 15.648 10.24-2.176 20.448-0.16 30.624-1.952 4.608-7.648 6.08-9.184 11.008a7.744 7.744 0 0 1-6.4 2.432 82.496 82.496 0 0 1-12.416-27.68z" fill="#045FD4" p-id="3733"></path><path d="M466.88 401.504l-7.808-9.856-10.336-25.6 1.76-1.312a9.12 9.12 0 0 1 12.8 1.056c8.128 6.656 9.312 16.224 10.816 25.6a22.4 22.4 0 0 1-1.152 7.136 6.4 6.4 0 0 1-6.08 2.976z" fill="#045FD4" p-id="3734"></path><path d="M512.096 213.664l5.12-0.416a31.776 31.776 0 0 1 8.416 18.048h-4.672z" fill="#0347CA" p-id="3735"></path><path d="M596.16 476.256l9.6 4.576a89.152 89.152 0 0 1-4.384 23.68c-2.88 8.8-8.064 13.728-17.888 11.936-7.744-10.08-1.056-20.8-1.472-31.232 3.488-4.8 4-14.496 14.144-8.96z" fill="#1F255A" p-id="3736"></path><path d="M588.896 489.6c2.432 9.792-2.112 18.176-5.44 26.816l-13.44 13.28-8.64-4.448c-12.8-12.8-1.152-21.312 5.248-30.784a20.224 20.224 0 0 1 7.392-8.256c5.28-0.768 9.792 2.56 14.88 3.392z" fill="#1A2656" p-id="3737"></path><path d="M191.776 765.888l3.712-14.4c4.672-9.6 9.6-19.2 17.792-26.432 11.616 1.984 6.4 14.112 12.416 19.616 0 16 8.704 23.968 23.616 28.384 11.68 3.424 24.16 7.04 32.832 16.192 6.592 6.976 13.152 15.648 2.848 25.28q-2.208 0.192-4.416 0.288c-21.248 1.312-39.936-6.4-58.72-15.168-3.872-1.792-5.44-6.144-11.36-6.208-18.144-0.192-21.6-12.096-18.72-27.552z" fill="#024BCC" p-id="3738"></path><path d="M209.376 747.968c1.312-7.648 2.592-15.296 3.904-22.912 2.848-11.008 10.496-18.848 17.76-26.944 16 7.552 1.92 22.176 7.552 32.192-2.112 14.144 12.416 8.768 17.28 14.752 4 6.784 9.088 9.44 17.696 10.496 26.24 3.2 26.144 4.096 21.696 29.536a11.36 11.36 0 0 1-14.944 5.312c-24.992-11.84-54.24-16.8-70.944-42.432z" fill="#0253D1" p-id="3739"></path><path d="M239.904 684.8a9.824 9.824 0 0 1 5.216-7.392c9.6-0.352 13.632 7.168 18.528 13.472 0.32 10.976 8.384 13.664 16.704 18.24 27.52 15.072 34.784 12.8 28.8 42.592-6.816 7.392-16 5.632-24.576 6.4-2.24-4.064-8.416-0.192-10.912-4-5.952-3.744-3.552-12.64-12.512-16.224-27.648-10.976-32.928-25.952-21.248-53.088z" fill="#0160D9" p-id="3740"></path><path d="M249.44 694.4l-4.32-17.216 4.128-5.152c11.328-2.112 5.952-23.392 22.4-19.552 5.664 19.456 20.864 29.664 37.568 38.144 9.312 4.704 23.2 4.32 20.768 20.704-1.984 3.808-4.16 7.328-9.024 7.52-22.048 8.224-35.776-12.48-54.592-16-6.176-0.8-11.52-4.96-16.928-8.448z" fill="#0267DA" p-id="3741"></path><path d="M239.904 684.8c0 4.352-0.288 8.704-0.416 13.056-0.608 18.112 3.2 25.44 20.192 32 9.184 3.52 15.296 8.256 16.48 18.24-7.488 11.744-15.488 7.616-23.552 0.736-7.392-5.696-15.712-10.368-20.992-18.464-4-10.656-0.736-21.408-0.576-32a21.952 21.952 0 0 1 8.864-13.568z" fill="#015AD4" p-id="3742"></path><path d="M298.336 583.104l5.728 0.576c12.032 13.472-5.568 19.2-7.488 29.248-3.2 5.92-6.4 11.84-9.376 17.888a17.472 17.472 0 0 1-3.872 5.408c-4.96 3.2-10.112 4.576-15.68 1.44 4.16-21.6 20.448-36.352 30.688-54.56z" fill="#0B2E69" p-id="3743"></path><path d="M267.648 637.664l11.968-6.4a7.328 7.328 0 0 1 6.016 2.304c3.552 9.6-4.64 13.824-9.056 19.776a9.984 9.984 0 0 1-9.376 1.12c-5.632 6.208-6.112 17.728-17.952 17.632 1.472-13.92 14.432-21.76 18.4-34.432z" fill="#076ED9" p-id="3744"></path><path d="M454.24 623.296c3.2-7.328 7.776-14.08 8.864-22.24 11.456-4.768 23.552-4.48 35.616-4.448-1.312 10.784-7.648 16.416-18.208 17.76a78.88 78.88 0 0 0-26.272 8.928z" fill="#1B2554" p-id="3745"></path><path d="M408.864 663.168l-3.392 4.992c-6.176 5.728-10.304 13.28-16.768 18.816s-12.992 5.088-20.448 1.44c-20.736-10.176-42.048-19.2-62.368-30.24-23.04-12.544-23.456-13.152-14.976-39.296a36.576 36.576 0 0 1 3.2-6.848 22.976 22.976 0 0 1 7.936-7.744c17.472 4.832 33.376 13.568 48.704 22.752 16.448 9.824 30.848 23.264 51.008 25.6 6.656 0.704 5.888 6.272 7.104 10.528z" fill="#017CE7" p-id="3746"></path><path d="M408.864 663.168l-8.096-4.224c-26.272-15.168-50.112-34.368-78.4-46.272-7.872-3.2-12.032-12.032-17.216-18.848 0-9.312 7.68-11.616 13.664-15.488 23.04-2.4 36.768 14.88 51.488 27.168 9.6 8.096 19.2 9.44 29.824 10.592a53.792 53.792 0 0 1 31.584 1.984 17.792 17.792 0 0 1 3.488 5.184 203.2 203.2 0 0 1-26.336 39.904z" fill="#0285EA" p-id="3747"></path><path d="M298.368 618.88c-7.2 22.24-7.392 23.168 11.936 32.416 26.144 12.512 50.976 28.8 81.408 29.632l1.824 2.112c-1.536 6.624-7.808 10.176-10.496 16-2.88 3.2-3.776 8.032-8.352 9.6-6.016 2.944-11.616 5.376-16-2.72-4.832-8.768-13.76-12.384-22.4-15.68-16-6.016-28.64-16.416-41.6-27.232-10.976-9.024-13.76-18.208-13.408-30.464l-1.28-1.44a9.824 9.824 0 0 1 1.376-3.584c5.312-2.912 5.056-17.76 16.992-8.64z" fill="#0174E2" p-id="3748"></path><path d="M280.896 632.768a95.36 95.36 0 0 0 50.112 47.136 138.24 138.24 0 0 1 43.68 28.96 9.152 9.152 0 0 1-3.936 8.448c-3.2 2.112-5.984 4.96-10.208 4.864-21.76-21.6-53.152-28.064-75.744-48.608-7.392-6.72-12.992-13.312-13.12-23.52z" fill="#0170E0" p-id="3749"></path><path d="M333.664 564.64c29.792-14.368 61.664-11.36 93.184-11.232 3.2 0 4.352 3.488 5.376 6.4a11.168 11.168 0 0 1-1.92 6.784c-14.048 6.784-29.28 2.016-43.936 4.064-6.4 0.928-12.544 0.736-17.76 5.248-11.008 1.824-21.952 4.224-33.184 2.016a15.2 15.2 0 0 1-4.672-6.112 11.744 11.744 0 0 1 2.912-7.168z" fill="#098DE2" p-id="3750"></path><path d="M333.664 564.64l0.448 5.44c4.928 14.112-8.352 9.44-13.568 13.12l-12.992 8.992c6.4 7.968 4.064 13.728-4.672 17.76L298.368 614.4c-6.176 3.2-10.272 3.008-9.6-5.536L304.096 583.68c9.6-6.784 17.056-16.8 29.568-19.04z" fill="#0A7FE3" p-id="3751"></path><path d="M435.296 623.264a25.92 25.92 0 0 0-3.2-0.64c-8.576-3.2-10.144-8.608-5.632-16.224 1.248-2.944 1.952-6.08 3.2-9.056 0.64-1.856 1.28-3.744 1.984-5.632 0.32-3.744 2.624-7.552-0.224-11.264l-3.392-4.992c-3.808-6.208 2.048-9.184 4.416-13.344a10.272 10.272 0 0 0 0-2.432c20.352 5.632 28.16 21.408 18.848 39.808a231.008 231.008 0 0 1-16 23.776z" fill="#0896EE" p-id="3752"></path><path d="M360.736 716.8l10.016 0.48-2.56 12.096-10.752 10.496c-20.768 1.408-26.72-12.8-30.784-29.152 1.856-11.36 7.968-9.408 15.712-5.632 6.528 3.296 9.952 11.488 18.368 11.712z" fill="#0268DA" p-id="3753"></path><path d="M391.712 680.928a26.304 26.304 0 0 1 13.76-12.8A23.968 23.968 0 0 1 396.896 681.6c-1.568 2.816-3.2 2.816-4.704 0z" fill="#0174E2" p-id="3754"></path><path d="M392.032 681.6H396.896c-2.688 7.328-5.696 14.432-13.696 17.664a56.064 56.064 0 0 1 8.832-17.664z" fill="#0170E0" p-id="3755"></path><path d="M578.688 503.04c-0.768 11.36-11.072 15.232-17.408 22.4-9.344 0-19.2 2.848-27.488-3.776l0.224-3.392c14.176-7.36 25.088-24.128 44.672-15.232z" fill="#088BDC" p-id="3756"></path><path d="M522.016 515.584l-6.144-16.672a7.36 7.36 0 0 1 5.184-5.376 31.008 31.008 0 0 1 11.52 2.592c5.344 7.2 14.144 13.92 3.2 23.264l-1.856 2.112z" fill="#088BDC" p-id="3757"></path><path d="M493.92 454.912a69.44 69.44 0 0 1-13.44-27.168 90.624 90.624 0 0 1-8.096-24.32c0.64-9.6 4.832-16.384 14.08-19.872 19.2-7.36 35.2-21.184 54.688-28.448 13.632 7.04 22.208-3.584 32-9.408 10.72 1.504 13.76 9.056 14.496 18.4 2.112 11.488-5.408 17.824-13.024 24.064-12.8-4.768-21.92 1.6-30.624 9.6-8.032 1.792-14.656 6.656-21.92 10.144-26.656 12.8-26.624 12.8-18.976 38.784-0.992 4.992-3.456 8.448-9.184 8.224z" fill="#0179E5" p-id="3758"></path><path d="M493.92 454.912c0-4.736 0.192-9.6 0.256-14.176-0.576-9.312-4.896-20.864 11.744-19.744 6.4 2.688 12.8 4.832 17.376 10.528 7.264 10.976 19.04 21.824 1.024 33.664-9.152 9.184-18.016 10.592-25.792-1.76a10.208 10.208 0 0 1-4.608-8.512z" fill="#0483E9" p-id="3759"></path><path d="M498.528 463.424c5.984 0 12.064 2.528 17.984-0.448a6.176 6.176 0 0 1 6.688 6.144c-7.008 9.344 11.68 20.672-2.304 29.504l-5.024 0.288a105.952 105.952 0 0 1-17.344-35.488z" fill="#068BE6" p-id="3760"></path><path d="M476.48 405.152l4 22.592-9.184-9.312-4.416-16.928 1.184-4.896c10.368-4.608 5.408 5.888 8.416 8.544z" fill="#026EE0" p-id="3761"></path><path d="M610.496 428.8c0.544 6.4 0.288 12.512-4.096 17.728a85.568 85.568 0 0 1-12.8-0.736c-8.256-5.312-16.608-9.056-25.792-1.888-10.848-4.224-22.816-6.592-30.24-16.992-2.336-11.584 5.44-17.12 13.536-22.4a182.4 182.4 0 0 0 23.392-16.224c9.984-10.688 19.872-15.2 28.128 1.728 0.256 13.44 12.96 24.256 7.872 38.784z" fill="#0388E9" p-id="3762"></path><path d="M601.152 436.32l5.248 10.176c0.224 11.168-9.6 18.88-10.24 29.76A19.2 19.2 0 0 0 588.896 489.6l-9.6 5.92c-14.4-2.784-3.712-11.648-4.352-17.792-1.056-9.6 7.104-14.72 10.752-22.048 7.2-4.896 1.056-20.288 15.456-19.36z" fill="#0892E9" p-id="3763"></path><path d="M610.496 428.8c-2.656-12.448-10.432-23.616-9.408-36.992-2.304-4.192-0.544-5.088 3.392-4.16l5.12 4.96c0.512 6.176 0.8 12.448 4.32 17.888-1.792 5.952 0.064 12.608-3.424 18.304z" fill="#0384E6" p-id="3764"></path><path d="M463.072 329.6c-9.792-3.2-17.056 0.192-22.4 8.768-12.16-28.16-5.824-38.624 26.752-44.416 19.2-4.608 39.584-5.792 54.208-22.4 5.12-5.792 13.888-4 21.248-4.416a59.36 59.36 0 0 1 14.016 26.496 7.936 7.936 0 0 1-6.24 6.752c-5.44 1.536-7.808 8.288-14.24 8.224-3.488 0.512-6.912 1.344-10.4 1.6-18.048-10.24-21.952-8.32-33.44 16.256-9.472 4-19.2 6.08-29.504 3.136z" fill="#015ED5" p-id="3765"></path><path d="M476.48 405.152l-8.416-8.544-0.416-4.896c-0.704-11.424 5.664-20.288 15.296-22.4 19.936-4 28.8-23.552 47.136-29.952 6.4-2.272 6.24-13.184 6.656-20.896a20.832 20.832 0 0 1 14.24-18.368c10.848-3.2 9.6 10.176 14.656 15.488 5.664 6.08 5.92 16.288 13.216 21.984a65.376 65.376 0 0 1 14.08 27.104c-6.4 5.76-6.88-1.696-9.6-4.192a17.088 17.088 0 0 0-8.96-8.864c-12.224 0-20.832 8.672-31.104 13.28-14.656 6.848-29.184 13.952-44 20.384-9.824 4.416-17.984 10.048-22.784 19.872z" fill="#0271E1" p-id="3766"></path><path d="M578.848 337.728c-12.8-4.576-13.856-20.352-25.28-26.72l-5.856 9.6c-6.784 6.4-14.56 10.176-24.16 8.832a13.312 13.312 0 0 1-12.576-4.128c-7.872-16.32-0.192-25.6 14.496-31.424h8.832c4.48-0.992 8.992-4.992 13.472 0h9.248a159.776 159.776 0 0 1 21.824 43.84z" fill="#0266DC" p-id="3767"></path><path d="M583.328 360.64l9.6 4.192a64.512 64.512 0 0 1 11.552 22.784l-3.392 4.16c-7.424-5.888-14.816-3.424-22.208 0a8.672 8.672 0 0 1-6.72 2.624c-5.152-3.008-7.68-6.4-2.176-11.552a56.96 56.96 0 0 0 13.344-22.208z" fill="#027CE4" p-id="3768"></path><path d="M882.464 748.384l-5.248-0.352-3.2-0.768a36.928 36.928 0 0 1-10.688-29.472 29.696 29.696 0 0 0-11.808-26.816c0.288-6.4-7.616-14.752 3.712-19.2l4.128 0.48 24.32 39.424c7.584 12.608 9.216 24.832-1.216 36.704z" fill="#053BC0" p-id="3769"></path><path d="M855.104 672l4.32 18.176a51.712 51.712 0 0 1 1.28 33.632 42.56 42.56 0 0 0 1.984 31.68 11.136 11.136 0 0 1-3.52 5.184h-39.104a32.832 32.832 0 0 1-0.768-3.52 26.048 26.048 0 0 0 8.16-21.888c-0.768-19.968 2.112-40.096 1.28-60.256-1.184-10.08 5.216-14.176 13.312-16.928a19.712 19.712 0 0 1 13.056 13.92z" fill="#0146C7" p-id="3770"></path><path d="M842.048 657.888l-4.96 18.848c-5.92 11.392-11.84 5.76-17.792 0 0.384-10.496 2.08-20.992 0-31.488l18.944 8.736z" fill="#024BD2" p-id="3771"></path><path d="M783.68 752.352a286.656 286.656 0 0 0-5.664-60.8 72.416 72.416 0 0 1 10.08-54.656c9.6 3.52 17.568 8.16 15.616 20.384-3.808 24.032-1.696 48.256-2.272 72.352-0.32 12.288-3.072 22.048-17.76 22.72z" fill="#0255D4" p-id="3772"></path><path d="M748.096 636.8c14.816 0.768 17.696 10.656 17.664 22.912v92.8h-17.792c-14.24-20.192-3.712-43.008-6.592-64.448-1.92-14.304 0.928-29.024-2.016-43.424 1.312-4.64 5.536-5.824 8.736-7.84z" fill="#015FDA" p-id="3773"></path><path d="M748.096 636.8l-4.448 4.48c-4.928 25.6-1.152 51.424-0.864 77.12 0 12.8 5.568 27.712-12.416 33.984h-9.024c-6.4-6.08-3.04-13.44-3.648-20.608-1.984-22.752-0.224-45.44-0.736-68.128-0.256-10.336 0.8-21.952 13.344-26.752z" fill="#0168DC" p-id="3774"></path><path d="M819.296 676.736h17.792c4.896 22.816-0.96 45.408-1.568 68.128-0.224 8.864-8.448 11.168-16.224 12.096-0.192-1.184-0.288-2.368-0.384-3.552z" fill="#014CCD" p-id="3775"></path><path d="M730.304 636.576c-12.64 27.968-8.256 57.6-8.928 86.848-0.224 9.6 0 19.2 0 28.8l-25.856-0.48c8.8-4.8 16.384-10.752 16.352-21.888 0-33.92 4.064-68-3.808-101.632a72.48 72.48 0 0 0 22.4 4.256c-0.192 1.12-0.16 2.656-0.16 4.096z" fill="#026ADE" p-id="3776"></path><path d="M730.368 752.224a45.504 45.504 0 0 0 6.976-37.536c-3.584-17.312-2.592-34.816-2.496-52.32 0-8.224 1.216-16 8.8-21.248 7.2 19.84 3.744 40.48 4.32 60.8 0.48 16.768 0 33.536 0 50.336z" fill="#0064DA" p-id="3777"></path><path d="M641.184 743.648l-4.512-0.256a49.12 49.12 0 0 1-9.92-40.96c4-21.088-5.472-41.6-4.992-63.008 0.192-8.736-8.448-10.848-16-11.712l-0.288-3.872 5.056-0.448 31.584 0.8c6.144 3.776 15.168-2.432 20.032 5.856a8.16 8.16 0 0 1 0.48 7.68c-15.84 8.672-15.072 24.256-14.272 38.4 1.216 22.24 5.888 44.384-3.456 65.984-1.344 0.512-2.528 1.024-3.712 1.536z" fill="#0183E9" p-id="3778"></path><path d="M659.008 632.224v-4.352c1.344-2.048 2.848-2.048 4.48-0.288l31.104 0.416v4.192c-12.096 25.792-7.52 52.192-4.064 78.944 4.096 31.776-4.384 38.816-34.848 31.68-9.984-19.872-3.2-41.6-6.4-62.304a65.6 65.6 0 0 1 9.728-48.288z" fill="#007AE5" p-id="3779"></path><path d="M659.008 743.456c19.904-3.552 22.72-6.4 21.792-25.056-0.736-14.624-3.776-29.024-4.192-43.776-0.48-17.312 3.2-32 17.984-42.432q3.424 48.384 6.752 96.768c0.768 11.424-6.88 15.616-16.256 17.312-14.624 2.688-29.376 1.824-44.128 0.832 0-1.152 0-2.304 0.224-3.456 6.016-7.424 11.936-7.264 17.824-0.192z" fill="#0173E1" p-id="3780"></path><path d="M539.232 645.536c6.976-18.56 21.504-23.552 39.648-22.144 3.904 11.136-0.608 21.024-4.448 31.04-5.952 1.728-5.92 8.48-9.888 11.84-8.64 3.2-14.848 2.944-17.408-8.288a17.92 17.92 0 0 0-7.904-12.448zM574.4 707.904l-21.92-31.264a10.56 10.56 0 0 1 6.88-6.4 12.384 12.384 0 0 1 15.072 2.176c2.4 11.776-0.16 23.616-0.032 35.488z" fill="#0495F0" p-id="3781"></path><path d="M574.432 672.32l-13.376 4.352c-7.072-5.888-4.096-11.808 0-17.728 3.008-5.728 7.776-6.4 13.376-4.512z" fill="#0198FC" p-id="3782"></path><path d="M561.056 658.944v17.728h-8.576c-6.912-9.312-13.12-18.912-13.248-31.104 5.376-0.576 10.272 0 12.48 5.952 1.664 4.48 4 7.68 9.344 7.424z" fill="#059EF8" p-id="3783"></path><path d="M663.488 627.584l-4.48 0.288-16.992-3.68a42.304 42.304 0 0 1 21.472 3.392z" fill="#0173E1" p-id="3784"></path><path d="M859.168 760.608c0-1.248 0.16-2.496 0.224-3.744-0.352-15.168 4.768-19.648 17.6-9.056l0.224 0.224q-4.704 6.4-9.6 12.512z" fill="#053BC0" p-id="3785"></path><path d="M249.44 694.4c16.448-1.152 31.552 4 46.368 10.208 8.064 3.36 16 7.392 24.832 7.616 9.92 13.152 24.032 23.2 29.568 39.616l-7.328 9.376-9.056 4.288c-17.76 7.168-25.344-3.584-30.976-17.696-1.184-17.568-15.712-23.776-28-30.464a62.336 62.336 0 0 1-25.408-22.944z" fill="#0162D9" p-id="3786"></path><path d="M350.208 752c-28.8-10.112-28.8-10.112-29.568-39.616l4.448-4.448c1.504-1.824 2.976-1.728 4.48 0a222.816 222.816 0 0 1 27.872 32 22.144 22.144 0 0 1-7.232 12.064z" fill="#0365DB" p-id="3787"></path><path d="M191.776 765.888a39.776 39.776 0 0 0 22.72 19.712c22.656 8.32 45.76 15.808 66.208 29.216-15.744 6.144-32.256 7.904-48.96 8.672-16-0.32-28.32-10.4-42.144-16.48-9.6-4.16-11.2-10.24-6.88-18.944a45.856 45.856 0 0 1 9.056-22.176z" fill="#0146C7" p-id="3788"></path><path d="M209.376 747.968c13.504 4.16 23.488 14.176 35.2 21.312 15.36 9.344 31.168 15.488 49.344 14.304l2.208 1.92a13.088 13.088 0 0 1 2.304 16v8.416L284.896 814.528c-1.664-15.008-11.168-22.944-24.512-27.872-9.6-3.52-18.688-8.384-28.288-11.872-12.832-4.672-20.576-13.184-22.72-26.816z" fill="#024FCF" p-id="3789"></path><path d="M182.496 788.064c1.792 3.2 3.2 8.448 5.408 8.864 18.144 3.2 28.352 18.976 43.616 26.56-9.6-0.48-19.2 0.288-28.448-1.632-17.792-3.744-23.776-14.56-20.576-33.792z" fill="#033EC1" p-id="3790"></path><path d="M249.44 743.52a68.032 68.032 0 0 0 26.72 4.416H284.896c10.24 3.968 25.6 3.904 17.824 22.4-1.472 4.448-2.976 8.896-4.448 13.344-1.472 2.016-2.976 1.92-4.448 0-0.448-13.696-8.896-19.456-21.216-19.616a23.36 23.36 0 0 1-23.296-16c-1.44-0.992-1.888-1.984-1.408-2.944s1.056-1.6 1.536-1.6z" fill="#0257D5" p-id="3791"></path><path d="M302.848 770.24l-17.824-22.4c5.952-2.624 11.904-1.248 17.824 0 14.592-1.568 18.336 16 30.976 17.696-3.68 8.8-7.872 15.392-18.72 7.552-3.168-2.176-8.128-1.888-12.256-2.848z" fill="#015AD4" p-id="3792"></path><path d="M293.952 783.584h4.448l17.76 8.928-8.864 8.704-8.96 0.224c-6.752-4.64-4.48-11.488-4.384-17.856z" fill="#0253D1" p-id="3793"></path><path d="M498.72 191.392a57.984 57.984 0 0 1 13.408 22.4c-16.448 9.984-32 22.4-53.44 17.888-3.488-13.344 5.472-28.576 21.28-35.52a99.2 99.2 0 0 1 18.752-4.768z" fill="#0347CA" p-id="3794"></path><path d="M463.136 267.136a63.36 63.36 0 0 1-17.792 22.4 16.896 16.896 0 0 1-17.792 0c3.872-22.048 3.872-22.048 35.584-22.4z" fill="#0052D1" p-id="3795"></path><path d="M507.648 249.312c-7.552 14.624-20.192 19.2-35.616 17.824 6.72-16.256 20.544-18.272 35.616-17.824z" fill="#0054CF" p-id="3796"></path><path d="M427.52 289.376h17.792a45.536 45.536 0 0 1-22.208 4.448z" fill="#0157D1" p-id="3797"></path><path d="M498.72 191.392a21.504 21.504 0 0 1-12.224 14.976c-11.296 6.144-19.2 16-27.968 25.12h-26.784c3.392-20.576 12.8-37.088 31.168-48s21.632-10.688 35.808 7.904z" fill="#0243C8" p-id="3798"></path><path d="M516.512 320.544h8.96c9.984 8.416 11.584 15.52-1.408 23.392-12.096 7.296-22.56 17.024-35.36 23.68a34.848 34.848 0 0 1-30.112 1.92l-8.096-4.96-0.576-12.8c5.568-12.608 19.68-17.056 29.344-20.896 10.56-4.192 14.656-10.336 19.968-17.6 8.48-3.776 12.576 2.496 17.28 7.264z" fill="#0069DD" p-id="3799"></path><path d="M498.752 320.576c-0.16 14.4-10.784 19.552-21.792 23.616-8.736 3.2-18.016 5.056-27.04 7.488 0.896-9.6 7.776-15.392 13.152-22.208 7.136-8.32 16.864-8.864 26.752-8.96 3.072-2.944 5.984-3.712 8.928 0.064z" fill="#0066DB" p-id="3800"></path><path d="M458.592 369.568c16-7.264 32-14.656 48-21.824 11.84-5.312 18.528-13.984 18.88-27.168h22.24c-2.4 13.504-10.208 21.728-20.96 30.944-18.4 16-41.152 24.384-59.104 40.192-3.04-7.392-6.048-14.752-9.056-22.144z" fill="#026EE0" p-id="3801"></path><path d="M583.2 476.384l-3.776 19.2c-0.256 2.496-0.512 5.024-0.736 7.52-12.8 9.6-24.992 20.672-43.04 16.352l-10.272-16.416c-2.784-18.624 4.352-30.112 27.104-37.952 11.808-4.288 24.448-3.168 30.72 11.296z" fill="#0296F7" p-id="3802"></path><path d="M249.44 743.52v4.416c-10.688-1.12-16.608-7.072-17.792-17.728 7.84 1.856 14.336 5.568 17.792 13.312z" fill="#0157CE" p-id="3803"></path><path d="M329.696 707.936h-4.48c-11.52-10.528-26.816-14.528-40.32-21.216-14.56-7.2-21.024-16.352-17.696-32.192 1.504-1.504 3.008-2.976 4.48-4.48a75.776 75.776 0 0 1 19.616 17.696 55.424 55.424 0 0 0 24.672 17.92c17.216 6.976 33.024 16.256 44.8 31.168-3.2 4.768-6.848 4.608-10.56 1.088a33.984 33.984 0 0 0-20.512-9.984z" fill="#016CE0" p-id="3804"></path><path d="M288.768 608.896l9.6 5.536v4.448l-17.376 8.864c-0.992-7.776 3.456-13.344 7.776-18.848z" fill="#0477E0" p-id="3805"></path><path d="M302.88 609.952c1.568-5.92 3.2-11.84 4.672-17.76 25.6 13.856 51.2 27.424 76.416 41.6 9.408 5.28 12.064 16 16.8 25.056-19.936 0.576-37.92-3.2-51.488-19.904a48 48 0 0 0-24.576-14.528 43.584 43.584 0 0 1-21.824-14.464z" fill="#0083EA" p-id="3806"></path><path d="M436.416 605.536c-1.44 5.696-2.912 11.392-4.352 17.088a30.656 30.656 0 0 1-31.264 0.672c-20.928-10.336-42.464-19.52-56.48-40.032a40.544 40.544 0 0 1-5.824-13.408c8.256-4.8 17.472-6.4 26.624-8.32a21.344 21.344 0 0 0 15.424 6.4c27.456-0.352 39.936 21.088 55.872 37.6z" fill="#028FEF" p-id="3807"></path><path d="M338.496 569.856c7.424 2.4 11.616 8.384 16 14.208 8.064 10.496 16.608 20.224 30.848 22.752 8.8 1.536 13.728 7.712 15.36 16.48-12.8 3.904-22.592-2.72-32.448-9.408-15.712-10.592-29.152-24.704-47.808-30.688a36.32 36.32 0 0 1 13.568-13.12z" fill="#038BEE" p-id="3808"></path><path d="M436.416 605.536c-6.08 1.408-13.568 1.312-16-3.968-11.136-23.904-48.608-10.752-55.296-40.032 22.4-0.256 44.8-9.28 67.2 0.576l8.544 12.16c-6.4 8.864-7.04 17.792 0 26.72z" fill="#0196F5" p-id="3809"></path><path d="M440.768 600.992c-19.2-12.96-19.2-15.264 0-26.72a17.6 17.6 0 0 1 0 22.4c0.096 1.408 0.064 2.848 0 4.32z" fill="#0197FC" p-id="3810"></path><path d="M440.928 596.608v-22.4c8.416 7.552 8.352 14.976 0 22.4z" fill="#0196F5" p-id="3811"></path><path d="M583.2 476.384c-13.76-3.2-26.848-3.2-40.064 3.904-9.792 5.248-16.512 11.456-17.76 22.688l-4.48-4.352c-1.888-8.832-9.6-16.704-4.32-26.72 6.4-6.048 14.144-10.208 18.08-19.2 3.2-7.36 11.936-9.12 19.84-9.088s14.784 2.432 22.4 1.856c9.6-0.96 16.928 0.992 15.36 13.184z" fill="#0191F2" p-id="3812"></path><path d="M507.648 427.392a28.256 28.256 0 0 0-13.472 13.344c-9.6-11.68-8.064-21.28 4.928-29.376 13.824-8.608 27.168-18.112 44.16-19.584l3.648 1.792c-0.224 18.656-12.032 28.832-39.264 33.824z" fill="#017EE8" p-id="3813"></path><path d="M569.984 382.88c1.472 2.976 2.976 5.92 4.448 8.864-18.88 17.92-20.192 17.92-31.168 0a110.016 110.016 0 0 1 10.624-13.536c7.424-7.008 12.832-4.192 16.096 4.672z" fill="#017EE8" p-id="3814"></path><path d="M543.264 365.056c12.8-18.528 15.008-19.488 31.104-13.28-7.072 12.16-18.592 13.856-31.104 13.28z" fill="#0275E5" p-id="3815"></path><path d="M574.432 454.112c-14.208-0.576-27.584 0.416-37.6 12.992-4.928 6.208-12.8 6.688-20.256 4.8v-8.928a24 24 0 0 0 0-26.656c0-3.84 0-7.616 3.456-10.208 6.688-6.4 13.28-9.056 19.584 0.32 1.248 0.288 2.464 0.64 3.68 0.96 9.344-1.056 20.864-15.136 26.72 4.48 7.808 6.144 18.08 11.776 4.416 22.24z" fill="#018BEF" p-id="3816"></path><path d="M525.472 436.288h-8.928a20.832 20.832 0 0 1-8.896-8.928 34.144 34.144 0 0 1 17.792-17.792 34.112 34.112 0 0 0 17.824-17.792c10.4 7.456 20.8 2.464 31.168 0h4.448a31.744 31.744 0 0 1-15.808 16.704 47.36 47.36 0 0 0-19.808 18.88c-4.352 6.24-13.024 3.648-17.792 8.928z" fill="#0181EA" p-id="3817"></path><path d="M574.432 454.112c-1.472-7.424-2.944-14.816-4.448-22.24 7.136-1.92 14.24-3.872 21.376-5.76 9.376-2.464 9.28 4.16 9.792 10.208-0.224 8.512-1.984 16.416-8.96 22.4z" fill="#028FEC" p-id="3818"></path><path d="M498.752 320.576h-8.928c5.632-23.296 7.968-25.024 35.648-26.656-4 8.544-8.896 16.8-8.96 26.688z" fill="#0161D9" p-id="3819"></path><path d="M547.776 293.792a16.224 16.224 0 0 1-13.472 0c4.48-8.032 8.96-12.896 13.472 0z" fill="#0062E1" p-id="3820"></path><path d="M876.896 747.808l-17.6 9.056c-15.008-7.104-17.408-19.2-12.8-33.6 3.68-11.264 8.48-22.112 12.8-33.152 19.392 15.136 15.2 37.44 17.6 57.696z" fill="#0142C9" p-id="3821"></path><path d="M659.008 743.456h-17.664c-0.672-24.992 1.632-50.112-3.616-74.848-3.968-18.656 6.08-29.024 21.28-36.416z" fill="#007FE7" p-id="3822"></path><path d="M525.472 436.288a25.184 25.184 0 0 1 17.76-8.864c-4.032 6.688-10.528 8.544-17.76 8.864z" fill="#0388E9" p-id="3823"></path></svg>