<?xml version="1.0" standalone="no"?><!DOCTYPE svg PUBLIC "-//W3C//DTD SVG 1.1//EN" "http://www.w3.org/Graphics/SVG/1.1/DTD/svg11.dtd"><svg t="1728542714747" class="icon" viewBox="0 0 1099 1024" version="1.1" xmlns="http://www.w3.org/2000/svg" p-id="7510" xmlns:xlink="http://www.w3.org/1999/xlink" width="214.6484375" height="200"><path d="M75.883065 106.044331m37.941532 0l682.947584 0q37.941532 0 37.941533 37.941532l0 682.947584q0 37.941532-37.941533 37.941533l-682.947584 0q-37.941532 0-37.941532-37.941533l0-682.947584q0-37.941532 37.941532-37.941532Z" opacity=".2" p-id="7511"></path><path d="M75.883065 87.073564m37.941532 0l682.947584 0q37.941532 0 37.941533 37.941533l0 682.947584q0 37.941532-37.941533 37.941532l-682.947584 0q-37.941532 0-37.941532-37.941532l0-682.947584q0-37.941532 37.941532-37.941533Z" fill="#E4E4E4" p-id="7512"></path><path d="M227.649195 295.751993c-37.941532 0-75.883065 37.941532-75.883065 75.883065s15.556028 75.883065 37.941532 75.883065c34.223262-34.223262 55.20493-52.511081 80.70164-62.831178C242.029035 428.775006 227.649195 485.459655 227.649195 485.459655s28.987331-28.911448 112.117228-36.234163L303.53226 485.459655s13.924542 3.035323 36.992994 10.433922c-2.655907 21.247258-14.986905 73.416865-74.934527 103.390675 74.858644 0 146.56814-31.908829 189.024715-54.408157 66.435623 34.526795 146.909614 86.810226 228.332142 168.232755l-89.655841-209.285493A1269.030436 1269.030436 0 0 1 739.859883 580.313486s-134.085376-133.857726-265.363078-204.315152c115.114609 14.417782 265.363078 62.034406 265.363078 62.034406S512.210688 295.751993 227.649195 295.751993z" opacity=".1" p-id="7513"></path><path d="M341.473792 466.488889s0 75.883065-75.883065 113.824597c113.824597 0 227.649195-75.883065 227.649195-75.883065z" fill="#225BBE" p-id="7514"></path><path d="M341.473792 466.488889s0 75.883065-75.883065 113.824597c10.320097 0 20.564311-1.252071 30.846466-2.390316C340.790844 538.426034 341.473792 485.459655 341.473792 485.459655l129.22886 32.326186C484.513369 509.969885 493.239922 504.430421 493.239922 504.430421z" fill="#FFFFFF" opacity=".1" p-id="7515"></path><path d="M303.53226 485.459655s189.707662 37.941532 379.415324 227.649195l-113.824597-265.590727H341.473792z" opacity=".2" p-id="7516"></path><path d="M303.53226 466.488889s189.707662 37.941532 379.415324 227.649195l-113.824597-265.590728H341.473792z" fill="#008EFF" p-id="7517"></path><path d="M341.473792 428.547356l-37.941532 37.941533s10.244214 2.921498 14.911022 4.059744L341.473792 447.518123h227.649195l100.127704 233.568073c4.552984 4.401218 9.105968 8.460962 13.696893 13.051888l-113.824597-265.590728z" fill="#FFFFFF" opacity=".2" p-id="7518"></path><path d="M341.473792 428.547356l-23.561692 23.561692c17.604871-2.655907 37.524176-4.590925 61.503224-4.590925 71.405964 0 154.877335 29.480571 223.779159 60.630569l-29.025273-67.915344A1139.194512 1139.194512 0 0 0 557.740527 428.547356H341.473792z" opacity=".2" p-id="7519"></path><path d="M227.649195 466.488889s37.941532-151.76613 113.824597-151.76613c151.76613 0 398.386091 246.619961 398.386091 246.619961S531.181454 428.547356 379.415324 428.547356c-113.824597 0-151.76613 37.941532-151.766129 37.941533z" fill="#BB4EFF" p-id="7520"></path><path d="M341.473792 314.722759c-75.883065 0-113.824597 151.76613-113.824597 151.76613s2.4662-2.390317 7.474482-5.767113C249.541459 417.73402 284.97885 333.693525 341.473792 333.693525c108.209251 0 263.276294 124.448226 344.129699 196.385372 32.515893 17.756637 54.256391 31.263823 54.256392 31.263823S493.239922 314.722759 341.473792 314.722759z" fill="#FFFFFF" opacity=".2" p-id="7521"></path><path d="M341.473792 314.722759c-38.207123 0-66.777097 38.434772-85.747863 76.641896 34.337087-19.577831 71.102432-19.729597 161.630928-19.729597 28.987331 0 64.12119 4.325335 100.393295 10.737453C457.0437 344.089505 393.681341 314.722759 341.473792 314.722759z" opacity=".2" p-id="7522"></path><path d="M189.707662 428.547356c-22.385504 0-37.941532-37.941532-37.941532-75.883064s37.941532-75.883065 75.883065-75.883065c284.561493 0 512.210688 142.280747 512.210688 142.280746S531.181454 352.664292 417.356857 352.664292c-142.280747 0-151.76613 0-227.649195 75.883064z" fill="#FF8080" p-id="7523"></path><path d="M113.824597 87.073564c-21.019609 0-37.941532 16.921923-37.941532 37.941533v18.970766c0-21.019609 16.921923-37.941532 37.941532-37.941532h682.947584c21.019609 0 37.941532 16.921923 37.941533 37.941532V125.015097c0-21.019609-16.921923-37.941532-37.941533-37.941533z" fill="#FFFFFF" opacity=".1" p-id="7524"></path><path d="M227.649195 276.781227C189.707662 276.781227 151.76613 314.722759 151.76613 352.664292c0 3.490621 0.758831 6.829476 1.024421 10.282155C157.9506 328.11612 192.62916 295.751993 227.649195 295.751993c182.954069 0 341.43585 58.467901 431.964347 100.469178 44.771008 12.14129 80.246341 22.840803 80.246341 22.840802S512.210688 276.781227 227.649195 276.781227z" fill="#FFFFFF" opacity=".2" p-id="7525"></path></svg>